<?xml version="1.0" encoding="UTF-8"?>
<svg id="Layer_1" data-name="Layer 1" xmlns="http://www.w3.org/2000/svg" viewBox="0 0 1234 333.05">
  <defs>
    <style>
      .cls-1 {
        fill: #00baed;
      }

      .cls-1, .cls-2, .cls-3, .cls-4, .cls-5, .cls-6 {
        fill-rule: evenodd;
      }

      .cls-2 {
        fill: #7eddf7;
      }

      .cls-3 {
        fill: #70cdff;
      }

      .cls-7 {
        fill: none;
        stroke: #042c75;
        stroke-miterlimit: 10;
        stroke-width: 3px;
      }

      .cls-4 {
        fill: #46a2f2;
      }

      .cls-5 {
        fill: #39a8f7;
      }

      .cls-8 {
        fill: #042c75;
      }

      .cls-6 {
        fill: #0c75d1;
      }
    </style>
  </defs>
  <g>
    <path class="cls-8" d="m310.37,185.56c1.04,8.06,4.95,14.28,11.74,18.65,6.79,4.37,15.25,6.56,25.39,6.56s18.68-2.3,24.95-6.91c6.27-4.6,9.41-11.05,9.41-19.34,0-11.63-7.31-19.05-21.93-22.28l-20.55-4.49c-4.37-1.04-7.63-2.45-9.76-4.23-2.13-1.78-3.19-4.29-3.19-7.51,0-4.14,1.67-7.51,5.01-10.1,3.34-2.59,7.94-3.89,13.82-3.89,6.22,0,11.28,1.44,15.2,4.32,3.91,2.88,6.33,6.68,7.25,11.4l12.61-2.76c-1.61-7.14-5.47-12.87-11.57-17.18-6.1-4.32-13.81-6.48-23.14-6.48-9.79,0-17.61,2.36-23.49,7.08-5.87,4.72-8.81,10.94-8.81,18.65,0,11.4,7.37,18.65,22.1,21.76l19.51,4.32c9.32,2.07,13.99,6.16,13.99,12.26,0,4.37-1.87,7.89-5.61,10.53-3.74,2.65-8.66,3.97-14.76,3.97-6.91,0-12.66-1.5-17.27-4.49-4.61-2.99-7.2-7.25-7.77-12.78l-13.12,2.94h0Z"/>
    <path class="cls-8" d="m442.47,121.49c-12.78,0-23.51,4.17-32.21,12.52-8.69,8.35-13.04,18.97-13.04,31.86s4.35,23.57,13.04,32.03c8.69,8.46,19.43,12.69,32.21,12.69s23.34-4.23,32.03-12.69c8.69-8.46,13.04-19.14,13.04-32.03s-4.35-23.51-13.04-31.86c-8.69-8.35-19.37-12.52-32.03-12.52h0Zm0,77.54c-8.98,0-16.64-3.11-22.97-9.32-6.33-6.22-9.5-14.16-9.5-23.83s3.17-17.41,9.5-23.57c6.33-6.16,13.99-9.24,22.97-9.24s16.43,3.08,22.71,9.24c6.27,6.16,9.41,14.02,9.41,23.57s-3.14,17.61-9.41,23.83c-6.27,6.22-13.84,9.32-22.71,9.32h0Z"/>
    <polygon class="cls-8" points="523.12 208.53 523.12 84.19 509.99 84.19 509.99 208.53 523.12 208.53 523.12 208.53"/>
    <path class="cls-8" d="m561.46,88.85c-2.53,0-4.66.86-6.39,2.59-1.73,1.73-2.59,3.8-2.59,6.22s.86,4.63,2.59,6.3c1.73,1.67,3.86,2.5,6.39,2.5s4.84-.84,6.56-2.5c1.73-1.67,2.59-3.77,2.59-6.3s-.89-4.49-2.68-6.22c-1.78-1.73-3.94-2.59-6.48-2.59h0Zm6.73,119.67v-85.14h-13.3v85.14h13.3Z"/>
    <path class="cls-8" d="m681.65,84.19h-13.12v52.84c-7.94-10.48-19.23-15.71-33.85-15.71-11.63,0-21.61,4.17-29.96,12.52-8.35,8.35-12.52,19.08-12.52,32.21s4.17,23.86,12.52,32.21c8.35,8.35,18.33,12.52,29.96,12.52,14.62,0,25.9-5.24,33.85-15.71v13.47h13.12v-124.33h0Zm-44.9,114.84c-8.98,0-16.52-3.02-22.62-9.07-6.1-6.04-9.15-14.02-9.15-23.92s3.02-17.9,9.07-24c6.04-6.1,13.61-9.15,22.71-9.15,8.4,0,15.8,3.08,22.19,9.24,6.39,6.16,9.58,14.13,9.58,23.92s-3.19,17.59-9.58,23.74c-6.39,6.16-13.79,9.24-22.19,9.24h0Z"/>
    <path class="cls-8" d="m762.64,121.15c-12.78,0-23.08,5.64-30.91,16.92v-15.71h-22.8v86.17h22.8v-27.8c0-24.64,10.25-36.96,30.74-36.96h5.01l1.21-21.93c-1.38-.46-3.4-.69-6.04-.69h0Z"/>
    <path class="cls-8" d="m868.84,122.35h-22.79v6.91c-7.6-6.33-17.1-9.5-28.49-9.5s-21.15,4.35-29.62,13.04c-8.46,8.69-12.69,19.6-12.69,32.72s4.2,24,12.61,32.64c8.4,8.63,18.31,12.95,29.7,12.95s20.78-3.11,28.49-9.32v6.73h22.79v-86.17h0Zm-47.32,68.9c-7.02,0-12.81-2.33-17.36-6.99-4.55-4.66-6.82-10.91-6.82-18.74s2.27-14.1,6.82-18.82c4.55-4.72,10.33-7.08,17.36-7.08,6.45,0,12.15,2.42,17.1,7.25,4.95,4.84,7.43,11.05,7.43,18.65s-2.47,13.79-7.43,18.56c-4.95,4.78-10.65,7.17-17.1,7.17h0Z"/>
    <path class="cls-8" d="m942.92,119.76c-11.17,0-20.2,3.45-27.11,10.36v-7.77h-22.8v86.17h22.8v-38.16c0-19.8,7.14-29.7,21.41-29.7,5.3,0,9.53,1.84,12.69,5.53,3.17,3.68,4.75,8.58,4.75,14.68v47.66h22.79v-52.5c0-10.71-3.17-19.43-9.5-26.16-6.33-6.73-14.68-10.1-25.04-10.1h0Z"/>
    <path class="cls-8" d="m1083.32,122.35h-21.93v5.35c-6.79-5.3-15.83-7.94-27.11-7.94s-20.78,4.06-29.19,12.17c-8.4,8.12-12.61,17.93-12.61,29.44s4.2,21.53,12.61,29.7c8.4,8.17,18.13,12.26,29.19,12.26s20.55-2.65,27.11-7.94v1.38c0,7.48-2.16,13.35-6.48,17.61-4.32,4.26-10.16,6.39-17.53,6.39-5.41,0-9.79-.95-13.12-2.85-3.34-1.9-6.79-5.09-10.36-9.58l-18.48,13.99c7.94,12.66,21.93,19,41.96,19,14.16,0,25.39-3.6,33.67-10.79,8.29-7.2,12.43-17.3,12.43-30.31l-.17-77.88h0Zm-45.07,61.48c-6.91,0-12.61-2.07-17.1-6.22-4.49-4.14-6.73-9.56-6.73-16.23s2.24-12.09,6.73-16.23c4.49-4.14,10.19-6.22,17.1-6.22,6.22,0,11.63,2.1,16.23,6.3,4.6,4.2,6.91,9.58,6.91,16.15s-2.3,11.94-6.91,16.15c-4.61,4.2-10.02,6.3-16.23,6.3h0Z"/>
    <path class="cls-8" d="m1189,163.8c-.46-12.89-4.92-23.46-13.38-31.69-8.46-8.23-18.56-12.35-30.31-12.35-12.55,0-23.11,4.29-31.69,12.87-8.58,8.58-12.87,19.54-12.87,32.9s4.26,24.29,12.78,32.81c8.52,8.52,19,12.78,31.43,12.78,9.67,0,18.13-2.24,25.38-6.73,7.25-4.49,12.72-11.11,16.41-19.86l-20.38-4.32c-4.49,7.6-11.63,11.4-21.41,11.4-5.3,0-9.93-1.81-13.9-5.44-3.97-3.63-6.53-8.49-7.68-14.59h65.62v-7.77h0Zm-43.69-24.18c4.84,0,9.1,1.32,12.78,3.97,3.68,2.65,6.22,6.62,7.6,11.92h-41.62c1.27-5.07,3.94-8.98,8.03-11.74,4.09-2.76,8.49-4.14,13.21-4.14h0Z"/>
    <polygon class="cls-1" points="0 260.05 63.22 223.56 126.44 187.06 126.44 260.05 126.44 333.05 63.22 296.55 0 260.05 0 260.05"/>
    <polygon class="cls-6" points="126.44 187.06 189.65 223.56 252.87 260.05 252.87 187.06 252.87 114.06 189.65 150.56 126.44 187.06 126.44 187.06"/>
    <polygon class="cls-4" points="252.87 260.05 189.66 296.55 126.44 333.05 126.44 260.05 126.44 187.06 189.66 223.56 252.87 260.05 252.87 260.05"/>
    <polygon class="cls-3" points="142.02 146 78.8 109.5 15.58 73 15.58 146 15.58 218.99 78.8 182.49 142.02 146 142.02 146"/>
    <polygon class="cls-2" points="15.58 73 78.8 36.5 142.02 0 142.02 73 142.02 146 78.8 109.5 15.58 73 15.58 73"/>
    <polygon class="cls-5" points="268.45 73 205.24 109.49 142.02 145.99 142.02 73 142.02 0 205.24 36.5 268.45 73 268.45 73"/>
  </g>
  <g>
    <circle class="cls-7" cx="1208" cy="91" r="24.5"/>
    <path class="cls-8" d="m1200.05,78.41c1.58-.32,3.85-.5,6.01-.5,3.35,0,5.51.61,7.02,1.98,1.22,1.08,1.91,2.74,1.91,4.61,0,3.2-2.02,5.33-4.57,6.19v.11c1.87.65,2.99,2.38,3.56,4.9.79,3.38,1.37,5.72,1.87,6.66h-3.24c-.4-.68-.94-2.77-1.62-5.8-.72-3.35-2.02-4.61-4.86-4.72h-2.95v10.51h-3.13v-23.94Zm3.13,11.05h3.2c3.35,0,5.47-1.84,5.47-4.61,0-3.13-2.27-4.5-5.58-4.54-1.51,0-2.59.14-3.1.29v8.85Z"/>
  </g>
</svg>